<?xml version="1.0" standalone="no"?>
<!DOCTYPE svg PUBLIC "-//W3C//DTD SVG 20010904//EN"
 "http://www.w3.org/TR/2001/REC-SVG-20010904/DTD/svg10.dtd">
<svg version="1.0" xmlns="http://www.w3.org/2000/svg"
 width="256.000000pt" height="256.000000pt" viewBox="0 0 256.000000 256.000000"
 preserveAspectRatio="xMidYMid meet">

<g transform="translate(0.000000,256.000000) scale(0.100000,-0.100000)"
fill="#000000" stroke="none">
<path d="M315 2471 c-82 -21 -162 -87 -206 -171 l-24 -45 0 -975 0 -975 27
-50 c34 -65 101 -127 164 -151 47 -18 89 -19 1014 -19 l965 0 50 27 c65 34
127 101 151 164 18 47 19 89 19 1014 l0 965 -24 45 c-32 61 -86 116 -146 148
l-50 27 -955 2 c-525 0 -968 -2 -985 -6z m1210 -529 c222 -62 385 -179 467
-337 47 -92 62 -161 56 -273 -4 -82 -8 -99 -46 -175 -23 -47 -63 -108 -88
-136 -79 -87 -203 -167 -323 -206 -30 -10 -79 -37 -108 -61 -115 -94 -297
-157 -454 -158 -89 -1 -98 1 -137 28 -26 18 -51 47 -67 79 -26 54 -31 92 -16
144 9 30 7 33 -32 59 -167 111 -266 280 -267 454 0 149 49 268 155 376 117
119 262 189 475 228 63 11 317 -3 385 -22z"/>
<path d="M1162 1759 c-133 -20 -293 -97 -362 -175 -59 -68 -84 -131 -85 -214
0 -98 32 -167 113 -241 56 -52 183 -120 249 -134 l31 -6 -20 -60 c-11 -32 -31
-75 -44 -94 -13 -20 -24 -37 -24 -39 0 -6 118 15 165 31 80 26 142 60 199 112
36 33 66 51 92 55 69 13 196 80 256 135 81 74 113 143 113 241 0 62 -5 84 -28
127 -54 105 -139 173 -276 223 -124 45 -245 58 -379 39z"/>
</g>
</svg>
